<svg width="64" height="64" viewBox="0 0 64 64" fill="none" xmlns="http://www.w3.org/2000/svg">
<path fill-rule="evenodd" clip-rule="evenodd" d="M32 5.33333C24.9276 5.33333 18.1448 8.14285 13.1438 13.1438C8.14285 18.1448 5.33333 24.9276 5.33333 32V56H0V32C-6.26191e-08 27.7977 0.827704 23.6365 2.43585 19.7541C4.04401 15.8717 6.40111 12.3441 9.37258 9.37258C12.3441 6.40111 15.8717 4.04401 19.7541 2.43586C23.6365 0.827705 27.7977 0 32 0C36.2023 0 40.3635 0.827705 44.2459 2.43586C48.1283 4.04401 51.6559 6.40111 54.6274 9.37258C57.5989 12.3441 59.956 15.8717 61.5641 19.7541C63.1723 23.6365 64 27.7977 64 32V56H58.6667V32C58.6667 24.9276 55.8572 18.1448 50.8562 13.1438C45.8552 8.14285 39.0724 5.33333 32 5.33333V5.33333Z" fill="black"/>
<path d="M48 42.6667C48 41.2522 48.5619 39.8957 49.5621 38.8955C50.5623 37.8953 51.9188 37.3334 53.3333 37.3334H64V58.6667C64 60.0812 63.4381 61.4377 62.4379 62.4379C61.4377 63.4381 60.0812 64 58.6667 64H53.3333C51.9188 64 50.5623 63.4381 49.5621 62.4379C48.5619 61.4377 48 60.0812 48 58.6667V42.6667ZM16 42.6667C16 41.2522 15.4381 39.8957 14.4379 38.8955C13.4377 37.8953 12.0812 37.3334 10.6667 37.3334H0V58.6667C0 60.0812 0.561903 61.4377 1.5621 62.4379C2.56229 63.4381 3.91885 64 5.33333 64H10.6667C12.0812 64 13.4377 63.4381 14.4379 62.4379C15.4381 61.4377 16 60.0812 16 58.6667V42.6667Z" fill="black"/>
</svg>
